<svg data-id="bottle" xmlns="http://www.w3.org/2000/svg" viewBox="0 0 240 800"><g data-id="fill"><path d="M164.29,29.48c.82-2.94,2.1-5.67,2.67-8.78,1-5.61-3.21-11.57-9.72-12.36a282.14,282.14,0,0,0-44.06-2.08c-8.71.31-17.4,1-26.08,1.8-1.17.1-2.37.23-3.54.24-7.57,0-13.67,7.75-12,15.19a7.76,7.76,0,0,0,2.86,4.88c2.41,1.67,2,3.34,1.1,5.72C73.4,39.72,70.83,45.16,69,50.94,66.11,60,68.55,66.9,74.78,71c3.19,2.12,2.15,5.16,2,7.8-.46,7.88-1.37,15.74-2,23.62s-1.19,16-1.77,24-.91,16.25-1.84,24.32c-.82,7-1,14.13-1.93,21.18-1,7.21-.86,14.57-1.57,21.83-.78,8-.85,16-1.94,24-.52,3.8-.55,7.74-.78,11.62-.53,8.95-1.45,17.86-2.06,26.79-.26,3.88-.26,7.81-.88,11.62-1.53,9.45-5.34,18.05-10.49,26.11-8.13,12.72-17.59,24.59-24,38.39-4.92,10.56-8.17,21.56-7.95,33.16.37,19.63-.12,39.26.32,58.88.19,8.81.07,17.63.3,26.44.72,26.79-.4,53.6.51,80.37.63,18.58.31,37.14.48,55.71.19,21.15.31,42.3.7,63.45.27,15.39-.25,30.8.13,46.18.45,18.1,0,36.2.33,54.3a120.66,120.66,0,0,0,1.43,16.55c1.23,7.75,6.11,12.94,13.34,15.46A162.19,162.19,0,0,0,71.93,791a413.63,413.63,0,0,0,61.34,2.72c12-.42,24-1.66,36-2.77a131.77,131.77,0,0,0,25.37-4.57,43.37,43.37,0,0,0,10.25-4.17c8.83-5.3,11.81-13.88,13-23.3,1.7-13.7.32-27.5.77-41.24,1-29.61.26-59.23.79-88.84.54-30.55,0-61.12.76-91.66.71-29,0-58.06.62-87.08.52-25.61.48-51.23.69-76.85.12-14.86-3.45-28.69-9.89-42-5.32-11-12.25-21-19.06-31-5.51-8.13-10.76-16.43-14.07-25.75a28.09,28.09,0,0,1-1.74-7.74c-.55-10.71-1.65-21.37-2.35-32.07-.46-7-1-14.13-1.73-21.18-.66-6.28-.83-12.68-1.28-19q-1-14.81-2.11-29.61-.85-11.64-1.76-23.27c-.7-9.05-1.44-18.09-2.11-27.14-.4-5.52-.72-11-1.06-16.57-.48-7.52-.92-15-1.43-22.56a4.9,4.9,0,0,1,1.77-4.6c5.94-4.83,6.39-11.23,5.77-18.33-.58-6.72-3.32-12.71-5.16-19a36.67,36.67,0,0,1-1-3.56Z"/></g><g data-id="outline"><path d="M120.7,800a435.87,435.87,0,0,1-49.46-3A166.5,166.5,0,0,1,35,788.54C25.4,785.18,19.23,778,17.69,768.28a127.14,127.14,0,0,1-1.51-17.39C16,742.24,16,733.49,16,725c0-9.32.05-19-.19-28.4-.2-8.25-.15-16.59-.1-24.67.05-7.07.1-14.39,0-21.55-.31-17-.46-34.29-.6-51L15,586.89C15,580.58,15,574.18,15,568c0-12,0-24.46-.42-36.65-.48-14.17-.39-28.52-.31-42.41.07-12.47.14-25.37-.2-38-.12-4.72-.14-9.49-.17-14.1,0-4.06,0-8.26-.13-12.37-.23-10.24-.2-20.63-.18-30.67,0-9.26,0-18.84-.14-28.22-.21-11.39,2.58-23.12,8.53-35.86,4.68-10,10.86-19,16.82-27.76,2.54-3.7,5.17-7.53,7.6-11.34,5.19-8.11,8.33-15.89,9.61-23.8a70.52,70.52,0,0,0,.62-7.46c.06-1.2.11-2.4.19-3.59.28-4,.62-8.09.95-12,.4-4.83.82-9.83,1.11-14.71.06-1.08.11-2.17.16-3.25.13-2.88.26-5.85.67-8.84.61-4.46.88-8.93,1.17-13.65.2-3.3.4-6.71.74-10.11.29-3,.43-5.94.59-9.09.2-4.23.41-8.6,1-13,.5-3.68.77-7.35,1.05-11.25.23-3.19.47-6.5.86-9.8.62-5.43,1-11.06,1.32-16.51q.23-3.76.49-7.55l.48-6.6c.41-5.71.83-11.61,1.3-17.42.25-3,.53-6,.81-8.94.45-4.79.92-9.73,1.2-14.55,0-.55.09-1.12.16-1.69,0-.29.07-.66.09-1-8.47-5.91-11.29-15.6-7.77-26.71,1.24-3.89,2.77-7.58,4.24-11.14.8-1.93,1.55-3.76,2.26-5.61a14.19,14.19,0,0,1-4.06-7.52A18.46,18.46,0,0,1,69.34,9.3,18.27,18.27,0,0,1,83.52,2.2c.71,0,1.54-.08,2.41-.16L86.57,2C94.65,1.28,103.81.49,113,.16a286.8,286.8,0,0,1,45,2.13,17.56,17.56,0,0,1,12,7,16.32,16.32,0,0,1,3,12.56,41.51,41.51,0,0,1-1.8,6.28c-.21.6-.42,1.18-.6,1.75.1.36.22.74.33,1.14l.21.69c.5,1.72,1.08,3.43,1.7,5.23,1.58,4.66,3.21,9.47,3.69,15,.67,7.73.29,16.51-7.52,23.19q.51,7.71,1,15.43l.71,11.55c.24,3.93.49,8,.79,12,.41,5.67.86,11.35,1.31,17,.26,3.37.53,6.74.79,10.1q.9,11.65,1.76,23.3,1.08,14.81,2.12,29.63c.16,2.31.29,4.64.41,7,.23,4.1.44,8,.84,11.85.67,6.41,1.23,13.21,1.76,21.42.29,4.49.67,9.08,1,13.52.49,6.09,1,12.38,1.32,18.63a21.9,21.9,0,0,0,1.4,6c3.18,9,8.57,17.28,13.37,24.37l1.57,2.32c6.31,9.29,12.83,18.91,17.93,29.45,7.19,14.85,10.63,29.46,10.5,44.68q-.09,11.69-.14,23.36c-.1,17.55-.19,35.7-.55,53.57-.29,13.8-.28,27.88-.27,41.49,0,14.94,0,30.38-.35,45.61-.4,16.51-.43,33.33-.46,49.6,0,13.76,0,28-.3,42-.22,12.47-.22,25.17-.22,37.46,0,16.86,0,34.28-.57,51.47-.17,5-.08,10.13,0,15.11.15,8.68.3,17.67-.82,26.68-1,8.47-3.84,20.56-15.89,27.78a48.73,48.73,0,0,1-11.66,4.79,137.58,137.58,0,0,1-26.54,4.8l-5,.47c-10.22,1-20.8,1.95-31.31,2.32Q127.15,800,120.7,800Zm1.36-787.8c-2.92,0-5.8.05-8.66.16-8.84.31-17.84,1.09-25.78,1.78l-.59,0c-1,.09-2.21.2-3.42.21a6.16,6.16,0,0,0-4.71,2.49,6.37,6.37,0,0,0-1.38,5.26A3.36,3.36,0,0,0,78,23.41c6.44,4.46,4,10.77,3.26,12.84s-1.7,4.3-2.55,6.35c-1.45,3.49-2.81,6.79-3.89,10.19-2.87,9,1.81,12.14,3.35,13.16,5.76,3.81,5.1,9.69,4.82,12.19,0,.36-.08.7-.1,1-.3,5-.77,10.09-1.23,15-.28,2.93-.56,5.86-.8,8.79-.46,5.75-.88,11.62-1.29,17.3l-.48,6.62c-.18,2.47-.33,4.95-.49,7.43-.35,5.6-.71,11.4-1.37,17.14-.36,3.05-.58,6.08-.81,9.29-.28,3.91-.58,8-1.13,12-.53,3.86-.72,7.77-.92,11.92-.15,3.16-.31,6.42-.63,9.69s-.51,6.47-.71,9.66c-.28,4.74-.58,9.65-1.25,14.56-.34,2.44-.45,5-.57,7.73,0,1.14-.1,2.29-.17,3.43-.3,5-.72,10.11-1.13,15-.33,3.89-.67,7.91-.93,11.84-.08,1.11-.13,2.23-.18,3.34a78.07,78.07,0,0,1-.77,8.83c-1.55,9.58-5.27,18.88-11.37,28.42-2.54,4-5.22,7.89-7.81,11.67-5.95,8.69-11.57,16.89-15.84,26-5.14,11-7.56,21-7.38,30.47s.16,19.16.14,28.48c0,10-.05,20.27.18,30.37.09,4.21.11,8.47.13,12.58,0,4.55.05,9.25.17,13.84.34,12.83.27,25.83.2,38.4-.08,13.77-.17,28,.3,41.92.42,12.4.43,24.94.43,37.07,0,6.17,0,12.54.06,18.79l.1,12.52c.14,16.68.29,33.93.59,50.88.14,7.31.09,14.7,0,21.85-.05,8-.1,16.23.1,24.29.24,9.6.22,19.32.2,28.72,0,8.41,0,17.09.13,25.61a115.42,115.42,0,0,0,1.35,15.71c.85,5.28,3.9,8.76,9.33,10.66a154.51,154.51,0,0,0,33.56,7.88,404.36,404.36,0,0,0,60.44,2.68c10.15-.35,20.54-1.33,30.59-2.27l5-.47a126.19,126.19,0,0,0,24.21-4.35,38.66,38.66,0,0,0,8.84-3.55c5.84-3.51,8.85-9.14,10.05-18.82,1-8.16.88-16.33.74-25-.09-5.13-.18-10.43,0-15.71.57-17,.57-34.31.57-51.07,0-12.34,0-25.1.22-37.68.25-13.92.27-28.11.3-41.82,0-16.34,0-33.23.46-49.88.37-15.07.36-30.44.35-45.3,0-13.68,0-27.82.27-41.75.36-17.78.45-35.88.55-53.38q.06-11.7.14-23.4c.11-13.3-2.92-26.14-9.28-39.26-4.72-9.75-10.71-18.58-17.05-27.93l-1.57-2.32c-5.22-7.72-11.1-16.81-14.77-27.12a33.34,33.34,0,0,1-2.08-9.48c-.31-6.06-.82-12.27-1.31-18.26-.36-4.49-.74-9.13-1-13.72-.53-8.05-1.07-14.7-1.72-20.95-.44-4.17-.67-8.38-.89-12.45q-.18-3.39-.4-6.77-1-14.8-2.12-29.59-.84-11.62-1.76-23.25L160.6,132q-.67-8.53-1.32-17.08c-.3-4-.55-8.16-.79-12.13l-.72-11.53c-.32-5.17-.64-10.34-1-15.51a10.94,10.94,0,0,1,4-9.75c3.27-2.65,4.17-5.95,3.54-13.06-.35-4-1.68-7.93-3.09-12.08-.62-1.85-1.27-3.76-1.85-5.73l-.18-.62a32.42,32.42,0,0,1-.92-3.55l-.1-.54V28.65l.22-.8c.38-1.35.81-2.59,1.23-3.78A31.75,31.75,0,0,0,161,19.59a4.05,4.05,0,0,0-.83-3.11,5.19,5.19,0,0,0-3.62-2.08A286.07,286.07,0,0,0,122.06,12.2Z"/></g></svg>
